<mxfile host="app.diagrams.net" agent="Mozilla/5.0 (Windows NT 10.0; Win64; x64) AppleWebKit/537.36 (KHTML, like Gecko) Chrome/132.0.0.0 Safari/537.36" version="24.8.6">
  <diagram name="Page-1" id="HoaPQ2uLGGyrzvA6Tu8a">
    <mxGraphModel dx="1313" dy="653" grid="0" gridSize="10" guides="1" tooltips="1" connect="1" arrows="1" fold="1" page="1" pageScale="1" pageWidth="850" pageHeight="1100" math="0" shadow="0">
      <root>
        <mxCell id="0" />
        <mxCell id="1" parent="0" />
        <mxCell id="aYGf88cDR2CeI2qNDCRV-1" value="Data Collection&amp;nbsp;&lt;div&gt;(Mental Health survey Dataset)&lt;/div&gt;" style="rounded=0;whiteSpace=wrap;html=1;fillColor=none;" vertex="1" parent="1">
          <mxGeometry x="282" y="34" width="181" height="42" as="geometry" />
        </mxCell>
        <mxCell id="aYGf88cDR2CeI2qNDCRV-3" value="" style="endArrow=none;html=1;rounded=0;" edge="1" parent="1">
          <mxGeometry width="50" height="50" relative="1" as="geometry">
            <mxPoint x="375" y="123" as="sourcePoint" />
            <mxPoint x="375" y="76" as="targetPoint" />
          </mxGeometry>
        </mxCell>
        <mxCell id="aYGf88cDR2CeI2qNDCRV-4" value="Data Cleaning and Preprocessing&amp;nbsp;" style="rounded=0;whiteSpace=wrap;html=1;" vertex="1" parent="1">
          <mxGeometry x="303" y="122" width="152" height="43" as="geometry" />
        </mxCell>
        <mxCell id="aYGf88cDR2CeI2qNDCRV-6" value="" style="strokeWidth=2;html=1;shape=mxgraph.flowchart.annotation_2;align=left;labelPosition=right;pointerEvents=1;rotation=90;" vertex="1" parent="1">
          <mxGeometry x="355.5" y="135.5" width="50" height="111" as="geometry" />
        </mxCell>
        <mxCell id="aYGf88cDR2CeI2qNDCRV-7" value="Exploratory Data Analysis, Outlier Removal" style="rounded=1;whiteSpace=wrap;html=1;fillColor=#dae8fc;strokeColor=#6c8ebf;" vertex="1" parent="1">
          <mxGeometry x="247" y="216" width="120" height="51" as="geometry" />
        </mxCell>
        <mxCell id="aYGf88cDR2CeI2qNDCRV-8" value="Label Encoder (to encode categorical variables)" style="rounded=1;whiteSpace=wrap;html=1;fillColor=#dae8fc;strokeColor=#6c8ebf;" vertex="1" parent="1">
          <mxGeometry x="388" y="216" width="124" height="48" as="geometry" />
        </mxCell>
        <mxCell id="aYGf88cDR2CeI2qNDCRV-9" value="" style="endArrow=none;dashed=1;html=1;dashPattern=1 3;strokeWidth=2;rounded=0;" edge="1" parent="1">
          <mxGeometry width="50" height="50" relative="1" as="geometry">
            <mxPoint x="299" y="270" as="sourcePoint" />
            <mxPoint x="463" y="267" as="targetPoint" />
            <Array as="points">
              <mxPoint x="380" y="313" />
            </Array>
          </mxGeometry>
        </mxCell>
        <mxCell id="aYGf88cDR2CeI2qNDCRV-10" value="Model Training (Random Forest, XGBOOST, ANN, Logistic Regression)" style="rounded=0;whiteSpace=wrap;html=1;fillColor=#dae8fc;strokeColor=#6c8ebf;gradientColor=#7ea6e0;" vertex="1" parent="1">
          <mxGeometry x="305" y="311" width="145" height="53" as="geometry" />
        </mxCell>
        <mxCell id="aYGf88cDR2CeI2qNDCRV-11" value="" style="endArrow=none;html=1;rounded=0;" edge="1" parent="1">
          <mxGeometry width="50" height="50" relative="1" as="geometry">
            <mxPoint x="450" y="330" as="sourcePoint" />
            <mxPoint x="476" y="330" as="targetPoint" />
          </mxGeometry>
        </mxCell>
        <mxCell id="aYGf88cDR2CeI2qNDCRV-12" value="Save the model" style="rounded=1;whiteSpace=wrap;html=1;fillColor=#bac8d3;strokeColor=#23445d;" vertex="1" parent="1">
          <mxGeometry x="477" y="311" width="94" height="33" as="geometry" />
        </mxCell>
        <mxCell id="aYGf88cDR2CeI2qNDCRV-13" value="" style="endArrow=none;html=1;rounded=0;" edge="1" parent="1">
          <mxGeometry width="50" height="50" relative="1" as="geometry">
            <mxPoint x="573" y="329.5" as="sourcePoint" />
            <mxPoint x="606" y="330" as="targetPoint" />
          </mxGeometry>
        </mxCell>
        <mxCell id="aYGf88cDR2CeI2qNDCRV-14" value="Inference and Coping Mechanism (Severity Prediction)" style="rounded=1;whiteSpace=wrap;html=1;fillColor=#bac8d3;strokeColor=#23445d;" vertex="1" parent="1">
          <mxGeometry x="598" y="300" width="130" height="54" as="geometry" />
        </mxCell>
        <mxCell id="aYGf88cDR2CeI2qNDCRV-18" value="" style="endArrow=none;html=1;rounded=0;" edge="1" parent="1">
          <mxGeometry width="50" height="50" relative="1" as="geometry">
            <mxPoint x="728" y="333" as="sourcePoint" />
            <mxPoint x="765" y="333" as="targetPoint" />
          </mxGeometry>
        </mxCell>
        <mxCell id="aYGf88cDR2CeI2qNDCRV-20" value="" style="endArrow=none;html=1;rounded=0;" edge="1" parent="1">
          <mxGeometry width="50" height="50" relative="1" as="geometry">
            <mxPoint x="765" y="333" as="sourcePoint" />
            <mxPoint x="765" y="400" as="targetPoint" />
          </mxGeometry>
        </mxCell>
        <mxCell id="aYGf88cDR2CeI2qNDCRV-21" value="" style="endArrow=none;html=1;rounded=0;" edge="1" parent="1">
          <mxGeometry width="50" height="50" relative="1" as="geometry">
            <mxPoint x="597" y="400" as="sourcePoint" />
            <mxPoint x="765" y="400" as="targetPoint" />
          </mxGeometry>
        </mxCell>
        <mxCell id="aYGf88cDR2CeI2qNDCRV-23" value="Streamlit Web app" style="rounded=0;whiteSpace=wrap;html=1;" vertex="1" parent="1">
          <mxGeometry x="478" y="381" width="120" height="34" as="geometry" />
        </mxCell>
        <mxCell id="aYGf88cDR2CeI2qNDCRV-24" value="" style="endArrow=none;dashed=1;html=1;rounded=0;" edge="1" parent="1">
          <mxGeometry width="50" height="50" relative="1" as="geometry">
            <mxPoint x="459" y="459" as="sourcePoint" />
            <mxPoint x="525" y="417" as="targetPoint" />
          </mxGeometry>
        </mxCell>
        <mxCell id="aYGf88cDR2CeI2qNDCRV-25" value="" style="endArrow=none;dashed=1;html=1;rounded=0;" edge="1" parent="1">
          <mxGeometry width="50" height="50" relative="1" as="geometry">
            <mxPoint x="534" y="418" as="sourcePoint" />
            <mxPoint x="607" y="461" as="targetPoint" />
          </mxGeometry>
        </mxCell>
        <mxCell id="aYGf88cDR2CeI2qNDCRV-26" value="User Input Question" style="rounded=0;whiteSpace=wrap;html=1;" vertex="1" parent="1">
          <mxGeometry x="370" y="461" width="120" height="34" as="geometry" />
        </mxCell>
        <mxCell id="aYGf88cDR2CeI2qNDCRV-27" value="" style="endArrow=none;html=1;rounded=0;" edge="1" parent="1" source="aYGf88cDR2CeI2qNDCRV-28">
          <mxGeometry width="50" height="50" relative="1" as="geometry">
            <mxPoint x="425" y="577" as="sourcePoint" />
            <mxPoint x="425" y="495" as="targetPoint" />
          </mxGeometry>
        </mxCell>
        <mxCell id="aYGf88cDR2CeI2qNDCRV-29" value="&lt;b&gt;LLM&lt;/b&gt;" style="text;html=1;align=center;verticalAlign=middle;resizable=0;points=[];autosize=1;strokeColor=none;fillColor=none;rotation=90;" vertex="1" parent="1">
          <mxGeometry x="428.5" y="512" width="43" height="26" as="geometry" />
        </mxCell>
        <mxCell id="aYGf88cDR2CeI2qNDCRV-30" value="" style="endArrow=none;html=1;rounded=0;" edge="1" parent="1" target="aYGf88cDR2CeI2qNDCRV-28">
          <mxGeometry width="50" height="50" relative="1" as="geometry">
            <mxPoint x="425" y="577" as="sourcePoint" />
            <mxPoint x="425" y="495" as="targetPoint" />
          </mxGeometry>
        </mxCell>
        <mxCell id="aYGf88cDR2CeI2qNDCRV-28" value="AI Generated response&amp;nbsp;&lt;div&gt;(FINAL ANSWER)&lt;/div&gt;" style="rounded=1;whiteSpace=wrap;html=1;fillColor=#b0e3e6;strokeColor=#0e8088;" vertex="1" parent="1">
          <mxGeometry x="365" y="559" width="120" height="53" as="geometry" />
        </mxCell>
        <mxCell id="aYGf88cDR2CeI2qNDCRV-31" value="Severity Prediction" style="rounded=0;whiteSpace=wrap;html=1;" vertex="1" parent="1">
          <mxGeometry x="575" y="461" width="122" height="28" as="geometry" />
        </mxCell>
        <mxCell id="aYGf88cDR2CeI2qNDCRV-32" value="" style="endArrow=none;html=1;rounded=0;" edge="1" parent="1">
          <mxGeometry width="50" height="50" relative="1" as="geometry">
            <mxPoint x="641" y="556" as="sourcePoint" />
            <mxPoint x="641" y="489" as="targetPoint" />
          </mxGeometry>
        </mxCell>
        <mxCell id="aYGf88cDR2CeI2qNDCRV-33" value="Explanation and Coping Mechanism suggestions" style="rounded=1;whiteSpace=wrap;html=1;fillColor=#b0e3e6;strokeColor=#0e8088;" vertex="1" parent="1">
          <mxGeometry x="583" y="560.75" width="131" height="49.5" as="geometry" />
        </mxCell>
        <mxCell id="aYGf88cDR2CeI2qNDCRV-34" value="&lt;font style=&quot;font-size: 9px;&quot;&gt;&lt;b&gt;User&amp;nbsp;&lt;/b&gt;&lt;/font&gt;&lt;div&gt;&lt;font style=&quot;font-size: 9px;&quot;&gt;&lt;b&gt;Choose&amp;nbsp;&lt;/b&gt;&lt;/font&gt;&lt;div&gt;&lt;font style=&quot;font-size: 9px;&quot;&gt;&lt;b&gt;features&lt;/b&gt;&lt;/font&gt;&lt;/div&gt;&lt;/div&gt;" style="text;html=1;align=center;verticalAlign=middle;resizable=0;points=[];autosize=1;strokeColor=none;fillColor=none;rotation=90;" vertex="1" parent="1">
          <mxGeometry x="657" y="497.5" width="54" height="55" as="geometry" />
        </mxCell>
      </root>
    </mxGraphModel>
  </diagram>
</mxfile>
